# xmcd CD database file
#
# Track frame offsets:
#	150
#	28906
#	53830
#	72496
#	93172
#	107405
#	125448
#	134963
#	146897
#	160378
#	178657
#	196632
#	204542
#	223111
#	234289
#
# Disc length: 3557 seconds
#
# Revision: 0
# Processed by: cddbd v1.5.2PL0 Copyright (c) Steve Scherf et al.
# Submitted via: CDex 1.51
#
DISCID=e30de30f
DTITLE=Jana Runnalls - Eye of the Womb
DYEAR=1986
DGENRE=New Age
TTITLE0=Eye of the Womb
TTITLE1=Woman, Earth and Spirit
TTITLE2=Inanna
TTITLE3=Remember Goddess is Within
TTITLE4=Dark Moon Chant
TTITLE5=Witchwoman
TTITLE6=Love Song to Diana
TTITLE7=Walking Breath
TTITLE8=Dance of Bride
TTITLE9=Mami Watu
TTITLE10=Full Moon Mawu
TTITLE11=Rainbow Spring
TTITLE12=The River is Flowing
TTITLE13=Ocean Call
TTITLE14=Birth Passage
EXTD=YEAR: 1986
EXTT0=
EXTT1=
EXTT2=
EXTT3=
EXTT4=
EXTT5=
EXTT6=
EXTT7=
EXTT8=
EXTT9=
EXTT10=
EXTT11=
EXTT12=
EXTT13=
EXTT14=
PLAYORDER=
